<?xml version="1.0" standalone="no"?><!DOCTYPE svg PUBLIC "-//W3C//DTD SVG 1.1//EN" "http://www.w3.org/Graphics/SVG/1.1/DTD/svg11.dtd"><svg class="icon" width="200px" height="200.00px" viewBox="0 0 1024 1024" version="1.1" xmlns="http://www.w3.org/2000/svg"><path d="M682.666667 768v85.333333c0 56.8832-28.450133 85.333333-85.333334 85.333334H426.666667c-56.8832 0-85.333333-28.450133-85.333334-85.333334v-85.333333h341.333334z"  /><path d="M597.333333 955.733333H426.666667c-66.030933 0-102.4-36.369067-102.4-102.4v-68.266666h-17.066667a17.066667 17.066667 0 0 1-17.066667-17.066667V256a17.066667 17.066667 0 0 1 17.066667-17.066667h17.066667v-68.266666c0-66.030933 36.369067-102.4 102.4-102.4h170.666666c66.030933 0 102.4 36.369067 102.4 102.4v68.266666h17.066667a17.066667 17.066667 0 0 1 17.066667 17.066667v512a17.066667 17.066667 0 0 1-17.066667 17.066667h-17.066667v68.266666c0 66.030933-36.369067 102.4-102.4 102.4zM358.4 785.066667v68.266666c0 47.223467 21.0432 68.266667 68.266667 68.266667h170.666666c47.223467 0 68.266667-21.0432 68.266667-68.266667v-68.266666H358.4z m324.266667-34.133334h17.066666V273.066667H324.266667v477.866666h358.4zM358.4 238.933333h307.2v-68.266666c0-47.223467-21.0432-68.266667-68.266667-68.266667H426.666667c-47.223467 0-68.266667 21.0432-68.266667 68.266667v68.266666z"  /></svg>