<?xml version="1.0" standalone="no"?><!DOCTYPE svg PUBLIC "-//W3C//DTD SVG 1.1//EN" "http://www.w3.org/Graphics/SVG/1.1/DTD/svg11.dtd"><svg class="icon" width="200px" height="200.00px" viewBox="0 0 1024 1024" version="1.1" xmlns="http://www.w3.org/2000/svg"><path d="M517.688889 695.940741c-91.022222 0-164.977778-73.955556-164.977778-164.977778s73.955556-164.977778 164.977778-164.977778S682.666667 439.940741 682.666667 530.962963s-73.955556 164.977778-164.977778 164.977778z m0-273.066667c-58.785185 0-108.088889 49.303704-108.088889 108.088889s49.303704 108.088889 108.088889 108.088889S625.777778 589.748148 625.777778 530.962963c0-60.681481-49.303704-108.088889-108.088889-108.088889z" fill="#040000" /><path d="M517.688889 908.325926c-218.074074 0-409.6-127.051852-453.214815-299.614815-5.688889-20.859259 7.585185-41.718519 26.548148-45.511111 20.859259-5.688889 41.718519 7.585185 45.511111 26.548148 36.02963 140.325926 195.318519 242.725926 381.155556 242.725926 183.940741 0 345.125926-102.4 381.155555-242.725926 5.688889-20.859259 26.548148-32.237037 45.511112-26.548148 20.859259 5.688889 32.237037 26.548148 26.548148 45.511111-43.614815 174.459259-235.140741 299.614815-453.214815 299.614815zM934.874074 494.933333c-17.066667 0-32.237037-11.377778-36.02963-28.444444-37.925926-138.42963-197.214815-240.82963-379.259259-240.82963s-341.333333 100.503704-379.259259 238.933334c-5.688889 20.859259-26.548148 32.237037-47.407407 26.548148-20.859259-5.688889-32.237037-26.548148-26.548149-47.407408C113.777778 271.17037 299.614815 149.807407 517.688889 149.807407c219.97037 0 405.807407 121.362963 453.214815 295.822223 5.688889 20.859259-5.688889 41.718519-26.548148 47.407407-3.792593 1.896296-7.585185 1.896296-9.481482 1.896296z" fill="#040000" /></svg>