<?xml version="1.0" standalone="no"?><!DOCTYPE svg PUBLIC "-//W3C//DTD SVG 1.1//EN" "http://www.w3.org/Graphics/SVG/1.1/DTD/svg11.dtd"><svg class="icon" width="200px" height="200.00px" viewBox="0 0 1024 1024" version="1.1" xmlns="http://www.w3.org/2000/svg"><path d="M895.76448 740.3264c-61.84448-28.30848-153.61536-101.24288-289.48992-126.30016 34.74944-38.30784 61.05088-98.21184 88.09984-169.1904 15.68256-41.12384 12.98944-76.18048 12.98944-126.10048 0-36.87936 6.74816-96.05632-2.14016-128.57856C675.25632 80.24064 599.5264 49.92 510.7968 49.92c-88.79104 0-164.608 30.464-194.51904 140.56448-8.82176 32.42496-2.05824 91.4688-2.05824 128.25088 0 50.02752-2.64192 85.20704 13.0816 126.39744 27.25888 71.33696 53.17632 131.15904 87.79776 169.30816-134.79424 25.51808-225.8688 97.90464-287.31904 126.12608C0.62464 798.96576 0 862.91456 0 862.91456L0 971.52l1024-0.12288 0-108.48256C1024 862.91456 1023.40608 798.76096 895.76448 740.3264z" /></svg>