<?xml version="1.0" standalone="no"?><!DOCTYPE svg PUBLIC "-//W3C//DTD SVG 1.1//EN" "http://www.w3.org/Graphics/SVG/1.1/DTD/svg11.dtd"><svg class="icon" width="200px" height="200.00px" viewBox="0 0 1024 1024" version="1.1" xmlns="http://www.w3.org/2000/svg"><path d="M691.151539 689.366145h-40.809006a8.671914 8.671914 0 0 0-2.550563-6.733486H376.003985a12.95686 12.95686 0 0 0-1.938428 6.631464h-40.809006A45.40002 45.40002 0 0 1 376.003985 641.925675h272.40012a45.40002 45.40002 0 0 1 42.747434 47.44047z" fill="#282d33" /><path d="M498.431005 661.513998h-40.809006V510.112583a433.595696 433.595696 0 0 1-201.596493-367.28106 438.696822 438.696822 0 0 1 19.07821-127.936236L279.592707 0h464.814586l4.386968 14.487197A435.534124 435.534124 0 0 1 566.071934 510.112583v110.592409h-40.809007v-133.649497l10.202252-5.917306A392.582644 392.582644 0 0 0 727.165488 142.831523a397.887815 397.887815 0 0 0-13.262927-102.022516H309.995417a397.887815 397.887815 0 0 0-13.160905 102.022516A392.378599 392.378599 0 0 0 488.228754 481.138189l10.202251 5.917306z" fill="#282d33" /><path d="M651.46478 428.49457a20.404503 20.404503 0 0 1-6.529441-39.686759c122.42702-42.135299 207.411776-163.236027 215.981668-303.823055H740.428415a20.404503 20.404503 0 0 1 0-40.809006h162.623891v20.404503c-1.326293 167.214905-99.471954 312.903059-244.85404 362.690047A21.016638 21.016638 0 0 1 651.46478 428.49457zM372.12713 428.49457a21.016638 21.016638 0 0 1-6.631464-1.122248C220.623692 377.483312 122.478031 232.101225 120.947694 64.886321v-20.404504h162.521869a20.404503 20.404503 0 0 1 0 40.809007H162.57288C171.244794 226.285942 256.127528 346.876557 378.758593 389.011856a20.404503 20.404503 0 0 1-6.631463 39.482714zM779.503039 1024H244.496961V916.468267h535.006078z m-494.197071-40.809007h453.388064v-25.913719H285.305968z" fill="#282d33" /><path d="M761.445053 957.277274h-498.890106V721.299193h498.890106z m-458.0811-40.809007h417.272094V762.1082h-417.272094z" fill="#282d33" /><path d="M348.763973 807.50822h326.472054v64.07014h-326.472054z" fill="#f8c44f" /><path d="M779.503039 1024H244.496961V916.468267h535.006078z m-494.197071-40.809007h453.388064v-25.913719H285.305968z" fill="#282d33" /><path d="M761.445053 957.277274h-498.890106V721.299193h498.890106z m-458.0811-40.809007h417.272094V762.1082h-417.272094z" fill="#282d33" /><path d="M495.064262 225.163694l-64.988343-41.217096-64.988343 41.217096V0h129.976686v225.163694z" fill="#34ca9d" /></svg>