<?xml version="1.0" standalone="no"?><!DOCTYPE svg PUBLIC "-//W3C//DTD SVG 1.1//EN" "http://www.w3.org/Graphics/SVG/1.1/DTD/svg11.dtd"><svg class="icon" width="200px" height="200.00px" viewBox="0 0 1024 1024" version="1.1" xmlns="http://www.w3.org/2000/svg"><path d="M542.304 228.512l343.808 184.96-102.4 54.272-243.04 125.44a64 64 0 0 1-57.6 0.576L231.68 469.984a64 64 0 0 1-9.248-5.568l-76.48-55.328 335.68-180.576a64 64 0 0 1 60.64 0zM784 608v200.544C693.344 888.192 602.656 928 512 928s-181.344-39.808-272-119.456V608l244.736 115.2a64 64 0 0 0 54.528 0" fill="#ffcb01" /><path d="M96 426.24l-33.28-17.888a64 64 0 0 1 0-112.704l418.976-225.376a64 64 0 0 1 60.608 0L961.28 295.648a64 64 0 0 1 0 112.704L816 486.496V823.04l-10.88 9.568C708.992 917.024 611.136 960 512 960s-196.992-42.976-293.12-127.424l-10.88-9.568V486.496L160 460.672V640a32 32 0 1 1-64 0v-213.76z m656 94.72l-209.696 112.768a64 64 0 0 1-60.608 0L272 520.928v272.928C353.44 862.4 433.28 896 512 896s158.56-33.6 240-102.144v-272.928zM512 126.592L93.056 352 512 577.376 930.944 352 512 126.624z" fill="#1c412f" /></svg>