<?xml version="1.0" standalone="no"?><!DOCTYPE svg PUBLIC "-//W3C//DTD SVG 1.1//EN" "http://www.w3.org/Graphics/SVG/1.1/DTD/svg11.dtd"><svg class="icon" width="200px" height="96.60px" viewBox="0 0 2120 1024" version="1.1" xmlns="http://www.w3.org/2000/svg"><path d="M1424.851765 244.909245c-8.801123-25.829384-22.576795-128.381605-55.676673-175.448483-36.352466-51.276111-110.014043-57.398631-133.930139-44.770932s-136.800071 208.54836-150.9584 219.4541-29.273302 9.183781-53.572056 28.699316-28.125329 36.161138-49.554152 42.283658-29.273302 0-48.406179 12.819028-29.273302 30.995261-45.344919 38.265754-40.370371-4.400562-64.860453 7.653151-38.265754 26.594699-53.380727 34.056521-39.796384-1.53063-70.982974 15.306302-25.638055 26.020713-60.268563 40.944357-28.890644 7.461822-61.799193 19.132877a615.887313 615.887313 0 0 0-71.55696 31.377918 1492.364413 1492.364413 0 0 1-176.022469 40.179042c-109.057399 19.132877-202.999826 15.688959-224.619977 22.002809a78.636125 78.636125 0 0 0-35.77848 48.597507c-3.635247 14.540987-7.079165 25.829384-8.801124 30.995261a4.783219 4.783219 0 0 1-4.400561 3.252589 29.081973 29.081973 0 0 0-28.507987 22.385467A205.104442 205.104442 0 0 0 19.733272 747.912584c4.974548 40.944357 149.236441 181.188346 452.109885 227.872566s784.44796 26.020713 784.447961 26.020713h635.594176S2066.95112 975.78515 2093.737148 896.575039s-24.490083-154.593647-24.490083-154.593647l9.757767-38.265754-25.255398-16.454275s-5.357206-218.306128-26.786027-306.126033a488.462352 488.462352 0 0 0-76.531509-162.438126c-17.984904-28.507987-71.365632-25.638055-97.386344-6.122521s-48.597508 123.0244-80.549413 147.705811-82.654029 36.161138-172.195893 22.768124c-130.486222-19.515535-159.568195-91.83781-175.448483-138.139373z" fill="#4848c1" /><path d="M96.26478 593.127608a362.185363 362.185363 0 0 0 66.96507 19.132877c52.99807 13.010356 107.526769-13.775672 140.05266 13.775672s-9.757767 61.990522 17.219589 76.531508 300.38617-35.013165 300.386171-35.013165 71.55696-24.298754 79.018782-48.788837-1.721959-46.492891-29.273302-46.492891-70.02633 9.757767-112.501317-8.035808a459.18905 459.18905 0 0 1-74.80955-40.753029 367.925226 367.925226 0 0 1-169.325962 38.265755A1119.655967 1119.655967 0 0 0 96.26478 593.127608z" fill="#6060e2" /><path d="M77.131903 608.43391s247.579429 2.295945 252.553977 24.298754-39.222398 64.286467-13.201685 76.531508 176.787784-15.49763 192.285415-11.288398-133.93014 121.302441-133.93014 121.302441-172.195894-4.974548-214.096894-32.525891-101.021591-49.74548-107.526769-85.52396S77.131903 608.43391 77.131903 608.43391z" fill="#6060e2" /><path d="M88.4203 735.284885S115.397657 626.801472 147.349562 624.696855a2842.762877 2842.762877 0 0 0 285.845183-38.265754c117.284537-26.977357 257.719854-76.531508 257.719855-76.531508l241.839566-117.284537L1184.3515 248.735821l26.786028-19.132878-76.531509-44.005617-60.65122 60.842549-28.890644 14.349658-38.265755 38.265754-66.773741 23.533439-50.893453 39.413727-67.539056 10.714411-64.669124 34.630508-43.431631 9.757767-68.304371 40.179042-65.43444 26.40337-149.619099 48.788837L328.537908 554.861854 108.892479 584.900471 53.789793 660.092678z" fill="#ffffff" /><path d="M750.800505 719.978583l-92.220467 48.788837-54.911358 55.485343 277.235389 25.064069 78.062139-10.90574 122.067756-112.309988-234.377745 2.295945-95.855714-8.418466z" fill="#6060e2" /><path d="M499.585829 523.675264L574.586707 491.914688a52.806741 52.806741 0 0 0 45.727576 38.265754c35.013165 0 608.042834-328.128842 652.813766-326.406883S1384.481394 248.735821 1384.481394 248.735821L1435.566176 303.073191 1332.439968 344.400206s-86.289276-22.576795-109.822714-19.132877-409.634898 191.328771-410.400213 204.339127a104.27418 104.27418 0 0 0 2.487274 26.020713 308.804636 308.804636 0 0 1 76.531508 37.30911c5.165877 4.591891 8.035808 9.183781 7.079164 13.201685-4.974548 20.472178-76.531508 71.748289-76.531508 71.74829s-100.064947 38.265754-130.294893 71.55696a1074.502377 1074.502377 0 0 1-94.325084 83.036686L383.257936 827.314024s75.000878-87.819906 132.016852-110.58803S711.19545 650.526239 708.516847 617.235033s14.540987-28.316658-62.755837-42.283658-128.572934-22.768124-130.677551-28.507987a210.461648 210.461648 0 0 0-15.49763-22.768124z" fill="#6060e2" /><path d="M1284.416447 340.190973l-26.786028 49.936809s-12.245041 70.791645 20.663507 79.40144 232.081799 11.097069 240.691594 56.250659-73.278919 113.457961-73.278919 113.457961l-132.016852 40.37037s-172.195894 14.732315-232.081799 41.518344S950.930399 841.85501 950.930399 841.85501a306.126033 306.126033 0 0 0 141.77462-24.490083c85.523961-32.908549 146.557838-42.857645 202.617168-38.265754s205.295771 14.540987 224.811306 0 217.732141-228.446552 219.836757-248.727402 14.540987-48.788837-9.757767-58.546604-307.847992-70.02633-317.60576-84.184659a261.929087 261.929087 0 0 1-19.132877-58.546604z" fill="#6060e2" /><path d="M969.297961 454.988236l111.162016-61.225207a769.715645 769.715645 0 0 1 97.769002 138.139372c35.395823 74.809549 297.898896 84.184659 297.898896 84.18466l-118.432509 59.885905s-157.27225 11.097069-224.619977 36.543795c-47.258206 17.984904-49.554152-133.93014-68.4957-156.315606-32.908549-39.605056-95.281728-101.21292-95.281728-101.212919z" fill="#42ead1" /><path d="M1238.688871 30.429693l-94.707742 143.496578 58.546604 48.406179a105.613482 105.613482 0 0 1 74.618221-23.34211 272.834827 272.834827 0 0 1 73.278919 25.638055s13.393014-93.36844-20.854836-119.580481-90.881166-74.618221-90.881166-74.618221z" fill="#f25757" /><path d="M2002.473324 309.57837l-114.797263 80.549412-90.307179 61.033878-48.788837 47.640864a233.038443 233.038443 0 0 1-33.099877 72.130947c-19.132877 19.132877-183.101634 202.617168-183.101634 202.617168s143.687907-68.304371 191.328771-74.426892 100.064947 1.339301 101.21292-2.487274 33.099877-125.703002 92.794453-168.369318a1260.282614 1260.282614 0 0 0 124.55503-106.378797z" fill="#6060e2" /><path d="M1357.695366 215.061957a453.831844 453.831844 0 0 0-15.49763-83.802002c-8.992452-20.28085-90.30718-79.018782-90.30718-79.018782l-6.505178-27.551343 70.02633 3.252589L1378.167545 78.261886l21.046164 70.982974 17.21959 111.544673zM1913.888103 200.329642a57.398631 57.398631 0 0 0-62.181851 7.270493c-27.551343 25.064069-56.250659 130.103564-56.250658 130.103564s42.09233-2.487274 53.189398-24.490083 65.243111-112.883975 65.243111-112.883974z" fill="#333333" /><path d="M1342.963051 232.664204a19.132877 19.132877 0 0 1-7.84448-1.721959 19.132877 19.132877 0 0 1-9.566438-25.446727 111.353345 111.353345 0 0 0 3.06126-64.095138C1323.256187 116.336311 1265.092241 76.539927 1225.104528 56.067748a19.132877 19.132877 0 0 1 17.410918-34.056521c19.132877 9.566439 111.736002 59.885905 123.0244 111.353345a149.045112 149.045112 0 0 1-5.739863 88.011234 19.132877 19.132877 0 0 1-16.836932 11.288398z" fill="#333333" /><path d="M1014.64288 1024c-164.9254 0-382.657542-5.739863-546.243641-30.421275C153.663411 946.12919 6.722915 800.145338 0.600395 750.0172a229.594525 229.594525 0 0 1 6.313849-72.513604 48.406179 48.406179 0 0 1 36.161138-35.969809c1.721959-5.548534 3.635247-12.627699 5.548534-20.854836 6.696507-24.490083 28.507987-56.250659 49.936809-62.373179a297.32491 297.32491 0 0 1 57.398632-5.357206A1310.219423 1310.219423 0 0 0 325.859305 535.728977a1482.989303 1482.989303 0 0 0 172.195894-39.796385h1.339301a595.415135 595.415135 0 0 1 70.600317-30.803932 186.73688 186.73688 0 0 1 30.229945-7.65315 112.692646 112.692646 0 0 0 30.038617-9.949097 79.784097 79.784097 0 0 0 27.742672-17.984904A133.93014 133.93014 0 0 1 689.38397 406.390728a123.598386 123.598386 0 0 1 57.398631-13.967001 51.084782 51.084782 0 0 0 15.49763-1.913287 107.526769 107.526769 0 0 0 18.176234-11.862384 242.413553 242.413553 0 0 1 34.821836-22.002809 97.769002 97.769002 0 0 1 49.171494-7.461822 47.066878 47.066878 0 0 0 16.262945 0 66.582412 66.582412 0 0 0 17.21959-14.349658 143.305249 143.305249 0 0 1 25.446726-22.385466 72.322275 72.322275 0 0 1 38.265755-12.43637 85.715289 85.715289 0 0 0 16.454274-2.678603c7.079165-2.104616 10.523082-5.931192 19.132877-14.732315a191.328771 191.328771 0 0 1 24.298754-24.107425 133.93014 133.93014 0 0 1 39.605055-21.81148 55.676672 55.676672 0 0 0 14.349658-6.887836c4.591891-4.974548 28.699316-43.240302 48.023522-74.044234C1185.308144 53.389146 1210.946199 15.888706 1226.826487 7.661569c31.569247-16.454274 114.797263-9.37511 157.846236 50.702125 25.638055 36.161138 29.847288 95.664385 33.099877 140.435317a245.092155 245.092155 0 0 0 4.400562 40.179042c10.714411 31.18659 49.74548 105.80481 180.997017 125.703003 75.574864 11.479726 125.320345 5.357206 156.889592-19.132877 12.627699-9.757767 26.786028-44.579604 38.265754-72.513605 13.967-33.673864 25.829384-62.947166 42.474988-75.383535a108.100756 108.100756 0 0 1 79.592768-17.21959 65.243111 65.243111 0 0 1 45.344919 28.316658c2.487274 4.017904 5.357206 8.227137 8.609795 13.010357a475.451996 475.451996 0 0 1 71.174302 155.167633c19.132877 78.444796 25.829384 254.849923 27.168686 299.620855l16.645603 10.714411a19.132877 19.132877 0 0 1 8.227137 20.663508l-7.84448 30.421274a210.461648 210.461648 0 0 1 22.194138 163.777428C2083.022736 991.091451 1913.888103 1017.112164 1894.755226 1019.790767H1256.291118c-1.721959 0.191329-103.126207 4.209233-241.648238 4.209233z m-163.012113-636.742149a44.770932 44.770932 0 0 0-19.132877 3.826575 193.624716 193.624716 0 0 0-29.273302 19.132877 140.626647 140.626647 0 0 1-24.87274 15.880288 79.592769 79.592769 0 0 1-29.655959 5.357206A84.184659 84.184659 0 0 0 708.516847 440.064591a93.559769 93.559769 0 0 0-22.959453 16.645603 117.093208 117.093208 0 0 1-38.265754 25.064069 147.705811 147.705811 0 0 1-38.265754 12.627699 142.922592 142.922592 0 0 0-24.681412 6.31385A547.008956 547.008956 0 0 0 517.188076 529.223799a52.615412 52.615412 0 0 1-4.974548 2.487274A1471.892234 1471.892234 0 0 1 331.981826 573.994731a1339.301396 1339.301396 0 0 1-174.683168 17.602247 388.014747 388.014747 0 0 0-48.023522 4.017904 68.878358 68.878358 0 0 0-22.576795 34.24785c-3.635247 15.114973-7.270493 26.786028-9.183781 32.334562a23.916096 23.916096 0 0 1-22.576794 16.454275 10.140425 10.140425 0 0 0-9.949097 7.65315A194.58136 194.58136 0 0 0 38.866149 746.190625c2.678603 24.87274 129.720907 163.777428 435.272953 210.461648 297.707567 44.770932 776.029495 26.020713 780.812714 25.829384h635.402848c46.68422-6.696507 167.030017-35.587151 185.20625-91.072495 22.768124-69.643673-21.81148-137.374057-22.194137-138.139373a19.132877 19.132877 0 0 1-2.678603-15.306301l6.31385-24.872741-13.584343-8.992452a19.132877 19.132877 0 0 1-8.801124-15.49763c0-2.104616-5.548534-217.349484-26.212041-301.725472a429.533091 429.533091 0 0 0-66.008426-142.922592L1933.02098 229.602943a28.699316 28.699316 0 0 0-19.132877-11.097068 68.687029 68.687029 0 0 0-49.74548 10.140425A221.750045 221.750045 0 0 0 1833.721348 287.001575c-15.49763 38.265754-29.464631 72.896262-50.319467 88.967878-40.370371 31.18659-99.108303 39.605056-185.971565 25.829384-151.915044-22.959453-198.407935-113.266632-210.461648-151.149729a238.012991 238.012991 0 0 1-6.505178-49.936809c-2.869932-39.413727-6.696507-93.559769-26.020713-121.111112a108.292084 108.292084 0 0 0-109.057399-38.265754c-12.245041 9.183781-61.416535 87.437248-90.881166 133.93014-38.265754 61.607864-49.74548 77.87081-57.398632 83.610672a87.054591 87.054591 0 0 1-24.298754 12.627699 95.664385 95.664385 0 0 0-29.273302 16.071617 143.305249 143.305249 0 0 0-19.132877 19.132877 71.174303 71.174303 0 0 1-36.543795 26.40337 130.868879 130.868879 0 0 1-23.533439 4.017905 33.865192 33.865192 0 0 0-19.132877 6.313849 123.215728 123.215728 0 0 0-19.132877 17.028261 95.664385 95.664385 0 0 1-29.081973 22.768123 70.408988 70.408988 0 0 1-33.673864 3.826576z" fill="#333333" /><path d="M631.985338 544.147443a114.797263 114.797263 0 0 1-41.135685-7.461822 45.918905 45.918905 0 0 1-26.786028-23.724768 43.048973 43.048973 0 0 1 0-32.334562 19.132877 19.132877 0 1 1 35.395822 14.349658c0 1.721959-0.956644 3.443918 5.357206 5.931192 35.013165 13.201685 72.704933 0 130.103564-30.803933 62.181851-32.71722 281.444622-150.9584 320.093034-172.195893 7.461822-4.400562 19.132877-11.479726 32.143233-19.132877 76.531508-48.023521 153.063017-95.664385 200.512552-95.664386h1.147973c63.903809 0.956644 127.807619 76.531508 135.078112 86.097947a19.132877 19.132877 0 0 1-29.847288 24.107425c-16.071617-19.132877-66.582412-71.365632-105.804811-71.939618-40.179042 0-131.060208 57.398631-180.040373 88.967879-13.967 8.992452-25.638055 16.262946-33.482535 20.854836-38.265754 22.385466-259.059156 141.009304-321.432335 173.726524-42.09233 20.472178-81.888714 39.222398-121.302441 39.222398z" fill="#333333" /><path d="M593.719584 848.16886a19.132877 19.132877 0 0 1-13.775671-5.739864 19.132877 19.132877 0 0 1 0-26.977356 895.227319 895.227319 0 0 1 112.692646-91.83781 792.101111 792.101111 0 0 1 89.924522-49.362823c44.005617-21.81148 89.350536-44.196946 98.725646-64.860453a119.197824 119.197824 0 0 0-38.265754-19.132877c-25.446727-9.37511-47.449535-17.410918-53.763385-35.969809a30.803932 30.803932 0 0 1 3.635247-26.5947c28.316658-44.388275 420.923296-219.4541 424.175885-220.410744 25.255398-8.035808 57.398631 2.104616 83.99333 10.331754 7.079165 2.104616 13.584343 4.209233 19.132877 5.548534 10.331754 1.53063 57.398631-14.923644 101.404249-35.395822a19.132877 19.132877 0 0 1 16.262945 34.630507c-29.081973 13.584343-99.490961 44.579604-126.659646 38.265754-6.122521-1.339301-13.393014-3.635247-21.237494-6.12252a138.52203 138.52203 0 0 0-61.799193-10.140425c-32.908549 10.331754-348.409692 160.33351-398.155172 199.938566a251.788662 251.788662 0 0 0 25.829384 10.523082c26.020713 9.566439 52.99807 19.132877 61.799193 40.370371a36.161138 36.161138 0 0 1 0 30.229945c-14.923644 32.908549-61.990522 56.250659-116.519221 83.228016a748.66948 748.66948 0 0 0-85.523961 46.875549A856.961565 856.961565 0 0 0 607.495256 841.85501a19.132877 19.132877 0 0 1-13.775672 6.31385z" fill="#333333" /><path d="M371.77821 844.91627a19.132877 19.132877 0 0 1-14.349658-6.505178 19.132877 19.132877 0 0 1 1.721959-26.977356 1484.711262 1484.711262 0 0 1 128.955592-100.830263 673.285945 673.285945 0 0 1 95.664385-48.597507c36.352466-16.071617 96.812358-42.857645 101.404249-57.398632a13.393014 13.393014 0 0 0 0-4.59189 186.545552 186.545552 0 0 0-53.189399-4.400562c-12.43637 0-26.212042 0-41.327014-1.53063-84.949974-4.591891-106.952783-49.554152-109.248728-54.5287a19.132877 19.132877 0 0 1 9.949096-25.255398 19.132877 19.132877 0 0 1 24.87274 9.566439c0 1.721959 16.071617 28.699316 76.531508 31.951905 14.732315 0 28.125329 1.147973 40.179042 1.53063 40.944357 0.956644 68.113042 1.53063 82.845358 19.132877a41.901001 41.901001 0 0 1 7.84448 35.77848c-4.783219 31.569247-50.128138 53.189398-123.598386 85.715289a639.80341 639.80341 0 0 0-90.498509 44.388275 1474.762166 1474.762166 0 0 0-125.129016 97.769002 19.132877 19.132877 0 0 1-12.627699 4.783219z" fill="#333333" /><path d="M338.295675 728.971035a51.276111 51.276111 0 0 1-8.418466 0 39.413727 39.413727 0 0 1-30.995261-19.132877c-11.288397-19.132877-1.147973-44.005617 8.801124-67.730385a332.338075 332.338075 0 0 0-67.539056-4.400561h-17.21959a1115.064076 1115.064076 0 0 1-132.016852-16.836932 19.132877 19.132877 0 1 1 6.887836-38.265754 1129.987721 1129.987721 0 0 0 125.703003 16.262945h17.02826c52.99807 0 88.77655 1.721959 102.552221 22.385466a30.612603 30.612603 0 0 1 1.913288 30.229946l-1.913288 4.783219a132.399509 132.399509 0 0 0-11.097068 33.673864h2.869931c21.620151 2.678603 168.17799-19.132877 255.615238-34.056521a19.132877 19.132877 0 0 1 6.31385 38.265754c-35.969809 6.122521-209.122347 34.821836-258.48517 34.821836z" fill="#333333" /><path d="M878.225466 866.919079c-100.638933 0-246.814114-6.696507-454.597159-17.984904C228.281632 838.411092 105.065903 799.380023 57.999026 733.180268a86.671933 86.671933 0 0 1-19.132877-71.174302 19.132877 19.132877 0 0 1 36.926453 9.566438 53.763385 53.763385 0 0 0 13.393014 40.753028c23.724768 31.18659 98.916975 85.523961 336.355979 98.342989 328.5115 17.793576 509.317188 24.298754 584.892052 10.140424a435.84694 435.84694 0 0 0 82.654029-27.360014 459.18905 459.18905 0 0 1 170.282606-41.327014 629.854314 629.854314 0 0 1 112.692646 6.313849 391.649994 391.649994 0 0 0 111.927331 1.913288 428.959104 428.959104 0 0 0 127.424962-41.518343 404.851679 404.851679 0 0 1 154.210989-44.962262 906.898374 906.898374 0 0 1 122.833071 4.209233 419.010008 419.010008 0 0 0 65.625768 2.295946 308.804636 308.804636 0 0 0 89.350536-19.132878 19.132877 19.132877 0 0 1 25.064069 10.331754 19.132877 19.132877 0 0 1-10.331754 24.87274 344.391788 344.391788 0 0 1-101.978234 21.428823 456.701776 456.701776 0 0 1-71.174303-2.487274 860.979469 860.979469 0 0 0-118.241181-4.017905c-50.128138 1.53063-93.751098 21.046165-139.861331 41.709672a466.268215 466.268215 0 0 1-138.713359 44.579604 430.681063 430.681063 0 0 1-121.111112-2.104616 581.256806 581.256806 0 0 0-107.718098-5.165877 419.775323 419.775323 0 0 0-155.932948 38.265754 459.18905 459.18905 0 0 1-90.115851 29.464631 800.13692 800.13692 0 0 1-139.096017 8.801123z" fill="#333333" /><path d="M946.14718 858.691942a19.132877 19.132877 0 0 1-14.540986-31.569247s16.071617-19.132877 79.784097-76.531509c50.510796-46.68422 164.351414-65.625768 264.60769-82.4627 35.013165-5.739863 68.113042-11.288397 94.516413-17.410918 81.697385-19.132877 103.891523-58.737933 127.233632-101.021591 2.295945-3.826575 4.400562-7.653151 6.505179-11.479726-15.306302-12.053713-80.740741-23.916096-120.728455-31.18659a481.383187 481.383187 0 0 1-113.075303-28.699315c-54.337371-29.273302-33.673864-107.33544-12.819028-148.853784a19.132877 19.132877 0 1 1 34.056521 17.02826c0 0.956644-38.265754 79.592769-3.06126 97.960331a478.321927 478.321927 0 0 0 101.595577 24.490083c84.949974 15.49763 137.756715 26.40337 150.767072 54.528699a32.334562 32.334562 0 0 1-1.913288 30.612604c-2.678603 4.400562-5.165877 9.183781-7.84448 13.775671-23.916096 43.240302-53.763385 97.003687-153.063016 119.771811-27.551343 6.313849-61.225207 12.053713-96.812358 17.984904-90.30718 14.923644-202.808497 33.673864-245.092156 72.704933-61.033878 57.398631-76.531508 74.044234-76.531508 74.235563a19.132877 19.132877 0 0 1-13.584343 6.122521z" fill="#333333" /><path d="M1510.949712 792.683516a19.132877 19.132877 0 0 1-14.349658-6.505178 19.132877 19.132877 0 0 1 1.721959-26.977357c91.455152-79.592769 221.558717-210.461648 224.619977-250.832018 1.339301-19.132877-6.313849-24.490083-55.102686-33.291207l-26.786028-5.165876c-76.531508-16.836932-183.292962-41.327015-220.410744-60.268563C1371.08838 384.387919 1378.167545 325.267329 1378.167545 322.780055a19.132877 19.132877 0 0 1 38.265754 4.400562 50.510796 50.510796 0 0 0 22.194137 48.406179c36.926453 19.132877 167.986661 47.449535 210.461648 57.398631 8.609795 1.913288 17.028261 3.252589 25.255398 4.783219 40.370371 7.270493 90.689837 16.262946 86.480604 73.852906-5.165877 70.982974-198.790593 242.987539-237.439004 276.852731a19.132877 19.132877 0 0 1-12.43637 4.209233z" fill="#333333" /><path d="M1741.692209 529.03247a19.132877 19.132877 0 0 1-11.862384-4.400562 19.132877 19.132877 0 0 1-2.869931-26.786028 583.935409 583.935409 0 0 1 139.478674-114.797262c83.99333-51.850097 111.544673-85.906618 111.927331-86.289276a19.132877 19.132877 0 0 1 31.186589 22.959453c-1.339301 1.53063-30.995261 39.222398-122.067755 95.664385a554.853435 554.853435 0 0 0-129.912236 106.952783 19.132877 19.132877 0 0 1-15.880288 6.696507zM1816.884416 707.924871a19.132877 19.132877 0 0 1-9.566438-2.678603 19.132877 19.132877 0 0 1-7.079165-26.020713s38.265754-67.156399 78.827454-129.14692 132.399509-133.93014 136.226085-136.800072a19.132877 19.132877 0 0 1 23.150781 30.612604s-89.350536 68.304371-127.424962 127.042304-76.531508 126.659646-76.531508 127.233632a19.132877 19.132877 0 0 1-17.602247 9.757768z" fill="#333333" /><path d="M2021.988859 476.225729s-49.936809 48.980165-46.301563 95.664386 62.181851 50.702124 62.181851 50.702124" fill="#42ead1" /><path d="M859.666576 752.504474a471.62542 471.62542 0 0 1-119.006496-13.010356 19.132877 19.132877 0 1 1 10.331754-36.735124 491.90627 491.90627 0 0 0 147.514482 10.331753c91.072495-6.122521 334.442691-39.796384 336.929966-40.179041a19.132877 19.132877 0 1 1 5.165876 38.265754c-9.949096 1.339301-247.196772 34.24785-339.608568 40.37037-14.540987 0.573986-28.316658 0.956644-41.327014 0.956644zM312.274962 927.570299s3.06126-24.490083 14.732316-24.490082 33.482535 19.132877 33.482535 28.125329-10.331754 8.609795-10.331754 8.609795zM518.14472 967.558013s3.06126-24.298754 14.540986-24.298754 33.673864 19.132877 33.673864 27.934-10.331754 8.609795-10.331754 8.609795zM724.779792 983.629629s2.869932-24.298754 14.540987-24.298754 33.673864 19.132877 33.673863 28.12533-10.523082 8.418466-10.523082 8.418466zM991.874756 989.75215s3.06126-24.298754 14.732316-24.298754 33.482535 19.132877 33.482535 27.934001-10.331754 8.609795-10.331754 8.609794zM1258.587063 983.629629s4.209233-24.298754 20.663507-24.298754 47.066878 19.132877 47.066878 28.12533-14.540987 8.418466-14.540987 8.418466zM1651.959016 983.820958s4.400562-26.020713 20.663507-26.020713 47.258206 19.132877 47.258206 29.847289-14.732315 9.183781-14.732315 9.183781zM1717.584784 403.520796a19.132877 19.132877 0 0 1-2.295945-38.265754 173.726524 173.726524 0 0 0 78.827453-33.291206l22.002809-17.410918c26.40337-20.854836 44.005617-34.630508 46.110234-50.319467 5.165877-35.204494 44.579604-65.43444 49.171494-68.687029a19.132877 19.132877 0 1 1 22.768124 30.612604 95.664385 95.664385 0 0 0-34.056521 43.622959c-4.400562 30.803932-29.081973 50.128138-60.268563 74.80955-6.696507 5.165877-13.967 10.90574-21.428823 17.02826a215.053538 215.053538 0 0 1-98.534317 41.709672zM1205.971651 245.67456a17.984904 17.984904 0 0 1-10.523082-3.252589L1129.440143 198.416354a19.132877 19.132877 0 1 1 21.237493-31.760576L1216.112076 210.470066a19.132877 19.132877 0 0 1 5.357205 26.403371 19.132877 19.132877 0 0 1-15.49763 8.801123zM898.506316 864.049148s114.797263 15.880288 201.469196-17.21959 76.531508-29.273302 141.774619-25.638055 158.611551 15.880288 230.742498 6.122521 233.229772-68.304371 316.266458-73.27892 267.860279-4.783219 267.860279-4.783219l23.34211-35.395823-38.265754-28.125329-84.375988 13.775672-173.343866-2.869932-164.925401 46.492891L1499.278657 784.456379s-175.83114-14.732315-181.953661-14.732315-184.249606 26.786028-184.249607 26.786027z" fill="#333333" /><path d="M1686.206866 985.542917a202.42584 202.42584 0 0 0-52.041426-43.431631c-44.770932-30.803932-147.705811-87.24592-147.705811-87.245919S1626.894947 899.253641 1671.47455 925.083025a884.895565 884.895565 0 0 1 91.072495 62.37318M1119.108389 870.554326a1532.160797 1532.160797 0 0 1 149.045112 59.503248 298.664211 298.664211 0 0 1 80.549413 54.528699l-53.763385 10.331754A326.406883 326.406883 0 0 0 1225.104528 935.606108c-38.265754-20.28085-105.996139-65.051782-105.996139-65.051782zM874.016234 893.32245s100.256276 47.640864 133.930139 69.069686 32.334562 30.995261 32.334562 30.995261h-40.753028a133.93014 133.93014 0 0 0-49.554151-48.214851c-39.222398-25.638055-75.957522-51.850097-75.957522-51.850096zM636.003243 884.138669a803.580838 803.580838 0 0 1 115.945235 68.495699 82.4627 82.4627 0 0 1 30.612603 40.179042l-30.612603-1.147972A118.24118 118.24118 0 0 0 707.368874 937.519396zM456.345527 878.590134a973.672115 973.672115 0 0 1 91.646481 61.225207A153.063017 153.063017 0 0 1 574.586707 976.933122l-42.857645-4.209233a64.286467 64.286467 0 0 0-16.454274-40.944357 730.684576 730.684576 0 0 0-58.929261-53.189398zM283.575647 859.648586s61.799193 42.283658 70.791645 57.398631a57.398631 57.398631 0 0 1 9.757767 26.40337l-29.273302-4.974548s2.487274-10.90574-15.306301-35.395822a480.235215 480.235215 0 0 0-35.969809-43.431631zM1631.869495 564.619621h-2.104617l-35.587151-7.844479a9.37511 9.37511 0 0 1-7.270493-11.288398 9.566439 9.566439 0 0 1 11.479726-7.270493l35.587151 7.653151a9.566439 9.566439 0 0 1-2.104616 19.132877zM1606.23144 602.502718h-2.104617L1569.496316 594.466909a9.566439 9.566439 0 1 1 4.017904-19.132877l35.77848 7.653151a9.37511 9.37511 0 0 1 7.270493 11.288398 9.566439 9.566439 0 0 1-10.331753 8.227137zM1578.680097 640.959801h-1.913288l-35.587152-7.84448a9.566439 9.566439 0 1 1 4.017905-19.132877l35.587151 7.653151a9.566439 9.566439 0 0 1-2.104616 19.132877zM1544.623575 679.99087h-2.104616l-35.587152-7.653151a9.566439 9.566439 0 0 1-7.270493-11.479726 9.183781 9.183781 0 0 1 11.288398-7.270493l35.587151 7.65315a9.566439 9.566439 0 0 1 7.270493 11.479727 9.37511 9.37511 0 0 1-9.183781 7.270493zM1504.253205 718.447953h-2.104617l-35.587151-7.653151a9.566439 9.566439 0 0 1-7.270493-11.479726 9.37511 9.37511 0 0 1 11.288397-7.270493l35.77848 7.65315a9.566439 9.566439 0 0 1-2.104616 19.132878z" fill="#333333" /><path d="M1856.489472 949.573108a246.048799 246.048799 0 0 0 151.532386-61.225207c30.421275-27.934001 61.033878-57.398631 42.666316-73.08759s-184.440935-28.125329-217.349484-28.125329-180.805688 30.421275-191.32877 59.694576S1787.611114 954.356327 1856.489472 949.573108zM1259.352378 860.987887s72.704933-15.880288 97.195016-9.757767 160.524839 61.033878 165.499386 74.426892 7.270493 19.132877-13.584342 25.638055a423.601899 423.601899 0 0 1-117.858523 12.819028c-21.237494-3.635247-151.915044-66.582412-154.402318-82.462701S1259.352378 860.987887 1259.352378 860.987887zM988.23951 889.687203a262.503074 262.503074 0 0 1 70.217659-7.079165c17.793576 4.400562 116.136564 44.196946 119.77181 53.763385s5.165877 13.393014-9.757767 19.132877a306.126033 306.126033 0 0 1-85.141303 9.37511c-15.49763-2.678603-110.014043-48.21485-111.736002-59.694577s16.645603-15.49763 16.645603-15.49763zM740.086094 890.835175a197.451292 197.451292 0 0 1 60.65122-2.104616c14.732315 5.739863 95.664385 52.232754 97.960331 62.181851s3.443918 13.584343-9.757767 17.793575a233.229772 233.229772 0 0 1-73.661577 3.252589c-13.010356-3.826575-90.115851-55.676672-90.689838-67.347727s15.49763-13.775672 15.497631-13.775672zM529.815775 881.268737a173.343866 173.343866 0 0 1 54.911357 0c13.010356 5.739863 84.375988 50.893453 85.906618 59.885905s2.678603 12.43637-9.566438 15.688959A210.461648 210.461648 0 0 1 593.719584 956.652273c-11.479726-3.826575-79.210111-53.763385-79.210111-64.286467s15.306302-11.097069 15.306302-11.097069zM340.017634 865.962435a147.131825 147.131825 0 0 1 46.110234 0c11.097069 4.783219 71.365632 42.857645 72.704933 50.510796s2.104616 10.523082-8.035809 13.393014a178.892401 178.892401 0 0 1-56.250658 0c-9.757767-3.252589-66.96507-45.536247-66.96507-54.337371s12.43637-9.566439 12.43637-9.566439z" fill="#42ead1" /><path d="M112.719054 652.822185m-9.757767 0a9.757767 9.757767 0 1 0 19.515535 0 9.757767 9.757767 0 1 0-19.515535 0Z" fill="#333333" /><path d="M160.359918 661.623308m-9.757767 0a9.757767 9.757767 0 1 0 19.515535 0 9.757767 9.757767 0 1 0-19.515535 0Z" fill="#333333" /><path d="M211.636029 670.233103m-9.757767 0a9.757767 9.757767 0 1 0 19.515534 0 9.757767 9.757767 0 1 0-19.515534 0Z" fill="#333333" /><path d="M263.294797 672.337719m-9.757767 0a9.757767 9.757767 0 1 0 19.515534 0 9.757767 9.757767 0 1 0-19.515534 0Z" fill="#333333" /><path d="M1099.210197 723.996487a19.132877 19.132877 0 0 1-19.132877-19.132877 357.019486 357.019486 0 0 0-32.525891-130.868879 308.23065 308.23065 0 0 0-93.559769-102.552221 19.132877 19.132877 0 1 1 21.046165-31.951905 344.391788 344.391788 0 0 1 106.761454 117.284537 391.267336 391.267336 0 0 1 36.543795 148.279797 19.132877 19.132877 0 0 1-19.132877 19.132877zM1469.24004 632.350006h-1.147973c-8.992452 0-223.280676-13.393014-297.898896-81.506056A456.893105 456.893105 0 0 1 1072.041511 405.051426a19.132877 19.132877 0 0 1 35.587152-14.349657 424.367214 424.367214 0 0 0 88.011234 131.825523c53.572056 48.980165 216.201511 68.304371 274.365458 71.55696a19.132877 19.132877 0 0 1 17.984904 20.28085 19.132877 19.132877 0 0 1-18.750219 17.984904z" fill="#333333" /></svg>