<?xml version="1.0" standalone="no"?><!DOCTYPE svg PUBLIC "-//W3C//DTD SVG 1.1//EN" "http://www.w3.org/Graphics/SVG/1.1/DTD/svg11.dtd"><svg class="icon" width="200px" height="200.00px" viewBox="0 0 1024 1024" version="1.1" xmlns="http://www.w3.org/2000/svg"><path d="M613.04832 371.99872c-0.32768-0.90112-0.57344-1.8432-1.024-2.70336l-81.92-154.89024c-7.08608-13.39392-29.12256-13.39392-36.20864 0l-81.92 154.89024c-0.45056 0.86016-0.69632 1.78176-1.024 2.70336-0.1024 0.28672-0.32768 0.49152-0.43008 0.77824-0.04096 0.16384 0 0.3072-0.04096 0.47104C409.94816 375.07072 409.6 376.95488 409.6 378.88l0 459.53024c0 11.32544 9.15456 20.48 20.48 20.48l163.84 0c11.32544 0 20.48-9.15456 20.48-20.48L614.4 378.88c0-1.92512-0.34816-3.7888-0.88064-5.632-0.04096-0.16384 0-0.3072-0.04096-0.47104C613.39648 372.49024 613.15072 372.28544 613.04832 371.99872zM450.56 406.71232l55.33696 17.24416c2.00704 0.6144 4.03456 0.9216 6.10304 0.9216s4.096-0.3072 6.10304-0.9216L573.44 406.71232 573.44 726.016l-122.88 0L450.56 406.71232zM512 267.79648l52.28544 98.85696L512 382.93504l-52.28544-16.2816L512 267.79648zM450.56 817.93024 450.56 766.976l122.88 0 0 50.93376L450.56 817.90976z" /></svg>