<?xml version="1.0" standalone="no"?><!DOCTYPE svg PUBLIC "-//W3C//DTD SVG 1.1//EN" "http://www.w3.org/Graphics/SVG/1.1/DTD/svg11.dtd"><svg class="icon" width="200px" height="171.38px" viewBox="0 0 1195 1024" version="1.1" xmlns="http://www.w3.org/2000/svg"><path d="M658.090667 17.749333 774.826667 206.506667 410.624 206.506667 531.114667 17.749333 658.090667 17.749333"  /><path d="M1158.485333 206.506667 880.64 206.506667 702.805333 17.749333 897.706667 17.749333 1135.274667 125.610667C1141.418667 129.706667 1176.576 157.696 1158.485333 206.506667"  /><path d="M1149.610667 267.605333C1141.418667 292.181333 1127.765333 319.146667 1104.213333 347.136L1104.554667 347.477333 667.648 926.378667 881.664 267.605333 1149.610667 267.605333"  /><path d="M488.789333 17.749333 310.954667 206.506667 33.109333 206.506667C12.970667 153.258667 57.002667 124.586667 57.002667 124.586667L56.32 125.610667 293.888 17.749333 488.789333 17.749333"  /><path d="M310.272 267.605333 524.629333 926.378667 87.381333 347.477333C87.722667 347.477333 87.722667 347.477333 87.722667 347.136 64.512 319.146667 50.517333 292.181333 42.325333 267.605333L310.272 267.605333"  /><path d="M774.826667 267.605333 597.333333 1019.562667 410.624 267.605333 774.826667 267.605333"  /></svg>